<?xml version="1.0" encoding="UTF-8"?>
<svg width="510px" height="486px" viewBox="0 0 510 486" version="1.1" xmlns="http://www.w3.org/2000/svg" xmlns:xlink="http://www.w3.org/1999/xlink">
    <!-- Generator: Sketch 46.2 (44496) - http://www.bohemiancoding.com/sketch -->
    <title>Group 11</title>
    <desc>Created with Sketch.</desc>
    <defs></defs>
    <g id="Page-1" stroke="none" stroke-width="1" fill="none" fill-rule="evenodd" opacity="0.9">
        <g id="Group-11" fill-rule="nonzero" fill="#5B8BAA">
            <path d="M267.75,0.75 C178.5,0.75 99.45,49.2 58.65,123.15 L0,64.5 L0,230.25 L165.75,230.25 L94.35,158.85 C127.5,95.1 191.25,51.75 267.75,51.75 C372.3,51.75 459,138.45 459,243 C459,347.55 372.3,434.25 267.75,434.25 C183.6,434.25 114.75,380.7 86.7,306.75 L33.15,306.75 C61.2,408.75 155.55,485.25 267.75,485.25 C402.9,485.25 510,375.6 510,243 C510,110.4 400.35,0.75 267.75,0.75 Z M229.5,128.25 L229.5,258.3 L349.35,329.7 L369.75,296.55 L267.75,235.35 L267.75,128.25 L229.5,128.25 L229.5,128.25 Z" id="Shape"></path>
        </g>
    </g>
</svg>