<?xml version="1.0" encoding="UTF-8"?>
<svg width="384px" height="512px" viewBox="0 0 384 512" version="1.1" xmlns="http://www.w3.org/2000/svg" xmlns:xlink="http://www.w3.org/1999/xlink">
    <!-- Generator: Sketch 46.2 (44496) - http://www.bohemiancoding.com/sketch -->
    <title>Group 7</title>
    <desc>Created with Sketch.</desc>
    <defs></defs>
    <g id="Page-1" stroke="none" stroke-width="1" fill="none" fill-rule="evenodd">
        <g id="Group-7" fill-rule="nonzero" fill="#5B8BAA">
            <path d="M383.933,103.629 C383.899,100.553 382.709,97.539 380.448,95.277 L288.683,3.511 C288.679,3.507 288.676,3.506 288.672,3.503 C286.505,1.338 283.511,0 280.206,0 L25.278,0 C11.361,0 0.04,11.32 0.04,25.237 L0.04,486.762 C0.04,500.678 11.36,511.999 25.277,511.999 L358.721,511.999 C372.637,511.999 383.958,500.679 383.958,486.762 L383.958,103.753 C383.96,103.709 383.937,103.672 383.933,103.629 Z M292.194,40.931 L343.028,91.765 L293.456,91.765 C292.761,91.765 292.194,91.198 292.194,90.503 L292.194,40.931 Z M359.983,486.763 C359.983,487.458 359.417,488.024 358.722,488.024 L25.278,488.024 C24.583,488.024 24.017,487.458 24.017,486.763 L24.017,25.237 C24.017,24.542 24.583,23.976 25.278,23.976 L268.218,23.976 L268.218,90.503 C268.218,104.419 279.54,115.742 293.457,115.742 L359.984,115.742 L359.984,486.763 L359.983,486.763 Z" id="Shape"></path>
            <path d="M298.088,164.014 L85.912,164.014 C79.292,164.014 73.924,169.381 73.924,176.002 C73.924,182.622 79.292,187.99 85.912,187.99 L298.087,187.99 C304.707,187.99 310.075,182.622 310.075,176.002 C310.076,169.381 304.707,164.014 298.088,164.014 Z" id="Shape"></path>
            <path d="M298.088,236.353 L85.912,236.353 C79.292,236.353 73.924,241.721 73.924,248.341 C73.924,254.961 79.292,260.329 85.912,260.329 L298.087,260.329 C304.707,260.329 310.075,254.961 310.075,248.341 C310.076,241.721 304.707,236.353 298.088,236.353 Z" id="Shape"></path>
            <path d="M298.088,308.691 L85.912,308.691 C79.292,308.691 73.924,314.059 73.924,320.679 C73.924,327.3 79.292,332.667 85.912,332.667 L298.087,332.667 C304.707,332.667 310.075,327.3 310.075,320.679 C310.076,314.06 304.707,308.691 298.088,308.691 Z" id="Shape"></path>
            <path d="M192,381.031 L85.912,381.031 C79.292,381.031 73.924,386.399 73.924,393.019 C73.924,399.64 79.292,405.007 85.912,405.007 L192,405.007 C198.62,405.007 203.988,399.64 203.988,393.019 C203.988,386.398 198.62,381.031 192,381.031 Z" id="Shape"></path>
        </g>
    </g>
</svg>