<?xml version="1.0" encoding="UTF-8"?>
<svg width="512px" height="468px" viewBox="0 0 512 468" version="1.1" xmlns="http://www.w3.org/2000/svg" xmlns:xlink="http://www.w3.org/1999/xlink">
    <!-- Generator: Sketch 46.2 (44496) - http://www.bohemiancoding.com/sketch -->
    <title>Group 6</title>
    <desc>Created with Sketch.</desc>
    <defs></defs>
    <g id="Page-1" stroke="none" stroke-width="1" fill="none" fill-rule="evenodd">
        <g id="Group-6" fill-rule="nonzero" fill="#5B8BAA">
            <path d="M505.664,221.739 L450.881,183.117 C440.955,176.12 427.236,183.245 427.236,195.377 L427.236,218.999 L164.196,218.999 C155.912,218.999 149.195,225.715 149.195,234 C149.195,242.285 155.912,249 164.196,249 L427.234,249 L427.234,272.621 C427.234,284.833 441.026,291.825 450.878,284.881 L505.661,246.259 C514.027,240.365 514.196,227.767 505.664,221.739 Z" id="Shape"></path>
            <path d="M430.471,330.317 C423.302,326.171 414.124,328.619 409.975,335.791 C374.739,396.707 308.872,437.602 233.603,437.602 C121.337,437.602 30.001,346.266 30.001,234 C30.001,121.734 121.337,30.398 233.603,30.398 C308.922,30.398 374.759,71.331 409.974,132.207 C414.122,139.379 423.302,141.826 430.47,137.681 C437.641,133.533 440.091,124.356 435.944,117.185 C395.418,47.127 319.729,0.397 233.603,0.397 C104.49,0.397 0,104.876 0,234 C0,363.113 104.479,467.603 233.603,467.603 C319.766,467.603 395.436,420.84 435.945,350.813 C440.092,343.642 437.642,334.466 430.471,330.317 Z" id="Shape"></path>
        </g>
    </g>
</svg>