<?xml version="1.0" encoding="UTF-8"?>
<svg width="268px" height="350px" viewBox="0 0 268 350" version="1.1" xmlns="http://www.w3.org/2000/svg" xmlns:xlink="http://www.w3.org/1999/xlink">
    <!-- Generator: Sketch 46.2 (44496) - http://www.bohemiancoding.com/sketch -->
    <title>man-user</title>
    <desc>Created with Sketch.</desc>
    <defs></defs>
    <g id="Page-1" stroke="none" stroke-width="1" fill="none" fill-rule="evenodd">
        <g id="man-user" fill-rule="nonzero" fill="#5B8BAA">
            <path d="M134,171.173 C172.914,171.173 204.463,132.855 204.463,85.587 C204.463,38.318 194.105,0 134,0 C73.895,0 63.535,38.318 63.535,85.587 C63.535,132.855 95.084,171.173 134,171.173 Z" id="Shape"></path>
            <path d="M0.909,301.853 C0.897,298.971 0.885,301.041 0.909,301.853 L0.909,301.853 Z" id="Shape"></path>
            <path d="M267.085,304.104 C267.123,303.315 267.098,298.63 267.085,304.104 L267.085,304.104 Z" id="Shape"></path>
            <path d="M266.935,298.397 C265.63,216.055 254.876,192.592 172.583,177.74 C172.583,177.74 160.999,192.501 133.999,192.501 C106.999,192.501 95.413,177.74 95.413,177.74 C14.018,192.43 2.61,215.545 1.11,295.722 C0.987,302.269 0.93,302.613 0.908,301.853 C0.913,303.277 0.919,305.911 0.919,310.504 C0.919,310.504 20.511,350 133.999,350 C247.485,350 267.079,310.504 267.079,310.504 C267.079,307.553 267.081,305.501 267.084,304.105 C267.062,304.575 267.018,303.664 266.935,298.397 Z" id="Shape"></path>
        </g>
    </g>
</svg>