<?xml version="1.0" encoding="iso-8859-1"?>
<!-- Generator: Adobe Illustrator 19.0.0, SVG Export Plug-In . SVG Version: 6.00 Build 0)  -->
<svg xmlns="http://www.w3.org/2000/svg" xmlns:xlink="http://www.w3.org/1999/xlink" version="1.1" id="Layer_1" x="0px" y="0px" viewBox="0 0 512.001 512.001" style="enable-background:new 0 0 512.001 512.001;" xml:space="preserve" width="512px" height="512px">
<g>
	<g>
		<path d="M469.084,452.151h-21.971V313.37c0-4.144-3.358-7.501-7.501-7.501c-4.144,0-7.501,3.357-7.501,7.501v138.783h-28.155    c0.922-3.533,0.669,0.162,0.669-64.864c0-4.749-1.667-9.111-4.437-12.551c2.77-3.439,4.437-7.802,4.437-12.551v-59.815    c0-11.057-8.995-20.054-20.053-20.054c-22.027,0-29.198,0-51.178,0c0.922-3.535,0.669,0.168,0.669-64.864    c0-11.056-8.995-20.052-20.052-20.052c-11.459,0-105.008,0-116.021,0c-11.056,0-20.051,8.995-20.051,20.052    c0,65.264-0.253,61.329,0.669,64.864c-9.764,0-41.313,0-51.179,0c-11.057,0-20.052,8.996-20.052,20.054v59.815    c0,4.749,1.667,9.111,4.437,12.551c-2.769,3.439-4.437,7.802-4.437,12.551c0,65.264-0.253,61.33,0.669,64.864H79.893V187.464    L256.002,66.501l176.109,120.964v98.899c0,4.144,3.357,7.501,7.501,7.501c4.143,0,7.501-3.357,7.501-7.501v-88.659    c13.729,8.528,31.574,4.647,40.616-8.513c9.385-13.665,5.904-32.418-7.751-41.799L345.23,54.526    c-3.414-2.351-8.083-1.491-10.433,1.92c-2.351,3.41-1.491,8.082,1.92,10.433l134.758,92.874c12.176,8.364,6.18,27.483-8.55,27.483    c-3.043,0-5.985-0.916-8.508-2.649L260.248,51.218c-2.572-1.768-5.95-1.748-8.493-0.001    C236.752,61.523,66.225,178.652,57.586,184.585c-6.85,4.703-16.244,2.958-20.945-3.887c-4.703-6.847-2.959-16.243,3.887-20.945    L247.474,17.61c5.101-3.503,11.956-3.504,17.057,0l50.707,34.828c3.414,2.346,8.084,1.481,10.43-1.935    c2.345-3.414,1.478-8.084-1.937-10.429l-50.707-34.83c-10.181-6.991-23.862-6.991-34.044,0L32.034,147.388    c-13.663,9.386-17.144,28.14-7.759,41.805c9.117,13.275,27.071,16.934,40.617,8.531v254.428H42.919    c-15.773,0-28.606,12.833-28.606,28.606v2.637c0,15.773,12.833,28.606,28.606,28.606h426.163    c15.773,0,28.606-12.833,28.606-28.606v-2.637C497.688,464.984,484.856,452.151,469.084,452.151z M316.409,420.154h20.308    c11.602,0,21.04-9.439,21.04-21.04v-16.877h26.817c2.784,0,5.051,2.265,5.051,5.05v59.815c0,2.784-2.266,5.05-5.051,5.05H268.552    c-2.784,0-5.05-2.264-5.05-5.05v-59.815c0-2.784,2.265-5.05,5.05-5.05h26.817v16.877    C295.369,410.716,304.808,420.154,316.409,420.154z M310.37,382.238h32.383v16.877c0,3.329-2.708,6.038-6.038,6.038h-20.308    c-3.329,0-6.038-2.708-6.038-6.038V382.238z M357.756,314.2v-16.879h26.817c2.783,0,5.05,2.265,5.05,5.052v59.815    c0,2.784-2.266,5.05-5.051,5.05c-11.459,0-105.007,0-116.02,0c-2.784,0-5.05-2.265-5.05-5.05v-59.815    c0-2.785,2.265-5.052,5.05-5.052h26.817V314.2c0,11.602,9.439,21.04,21.04,21.04h20.308    C348.318,335.24,357.756,325.8,357.756,314.2z M342.754,297.321V314.2h0c0,3.329-2.708,6.038-6.038,6.038h-20.308    c-3.329,0-6.038-2.708-6.038-6.038v-16.879C324.254,297.321,330.007,297.321,342.754,297.321z M239.811,212.404h32.383v16.877    c0,3.329-2.708,6.038-6.038,6.038h-20.309c-3.328,0-6.037-2.708-6.037-6.038V212.404z M192.942,217.454    c0-2.784,2.265-5.05,5.049-5.05h26.817v16.877c0,11.602,9.438,21.04,21.039,21.04h20.309c11.602,0,21.04-9.439,21.04-21.04    v-16.877h26.817c2.784,0,5.05,2.265,5.05,5.05v59.815c0,2.784-2.265,5.05-5.05,5.05c-11.7,0-99.891,0-116.021,0    c-2.783,0-5.049-2.265-5.049-5.05V217.454z M169.249,297.321c14.419,0,18.84,0,32.384,0V314.2c0,3.329-2.708,6.038-6.038,6.038    h-20.309c-3.329,0-6.038-2.708-6.038-6.038V297.321z M122.382,302.372c0-2.785,2.265-5.052,5.05-5.052h26.816V314.2    c0,11.602,9.439,21.04,21.04,21.04h20.309c11.602,0,21.04-9.439,21.04-21.04v-16.879h26.817c2.784,0,5.05,2.266,5.05,5.052v59.815    c0,2.784-2.265,5.05-5.05,5.05c-11.01,0-104.562,0-116.021,0c-2.784,0-5.05-2.265-5.05-5.05V302.372z M201.633,382.238v16.877    c0,3.329-2.708,6.038-6.038,6.038h-20.309c-3.329,0-6.038-2.708-6.038-6.038v-16.877H201.633z M122.382,387.287    c0-2.784,2.265-5.05,5.05-5.05h26.816v16.877c0,11.602,9.439,21.04,21.04,21.04h20.309c11.602,0,21.04-9.439,21.04-21.04v-16.877    h26.817c2.784,0,5.05,2.265,5.05,5.05v59.815c0,2.784-2.265,5.05-5.05,5.05H127.43c-2.784,0-5.049-2.264-5.049-5.05V387.287z     M482.686,483.395c0,7.501-6.103,13.604-13.604,13.604H42.919c-7.501,0-13.604-6.103-13.604-13.604v-2.637    c0-7.501,6.103-13.604,13.604-13.604c10.567,0,421.328,0,426.163,0c7.501,0,13.604,6.103,13.604,13.604V483.395z" fill="#002e4e"/>
	</g>
</g>
<g>
</g>
<g>
</g>
<g>
</g>
<g>
</g>
<g>
</g>
<g>
</g>
<g>
</g>
<g>
</g>
<g>
</g>
<g>
</g>
<g>
</g>
<g>
</g>
<g>
</g>
<g>
</g>
<g>
</g>
</svg>
